<mxfile host="app.diagrams.net" modified="2022-10-12T03:41:16.115Z" agent="5.0 (Windows NT 10.0; Win64; x64) AppleWebKit/537.36 (KHTML, like Gecko) Chrome/106.0.0.0 Safari/537.36" etag="saT46im1ZMb5zwu_Gc50" version="20.4.0" type="github">
  <diagram name="Page-1" id="5d7acffa-a066-3a61-03fe-96351882024d">
    <mxGraphModel dx="1934" dy="1142" grid="1" gridSize="10" guides="1" tooltips="1" connect="1" arrows="1" fold="1" page="1" pageScale="1" pageWidth="1100" pageHeight="850" background="#ffffff" math="0" shadow="0">
      <root>
        <mxCell id="0" />
        <mxCell id="1" parent="0" />
        <mxCell id="KGGcfLkiDgx1GtvcXzr1-1" value="Trang chủ" style="rounded=0;whiteSpace=wrap;html=1;" vertex="1" parent="1">
          <mxGeometry x="460" y="390" width="120" height="60" as="geometry" />
        </mxCell>
        <mxCell id="KGGcfLkiDgx1GtvcXzr1-3" value="Đăng kí tài khoản" style="rounded=0;whiteSpace=wrap;html=1;" vertex="1" parent="1">
          <mxGeometry x="690" y="180" width="120" height="60" as="geometry" />
        </mxCell>
        <mxCell id="KGGcfLkiDgx1GtvcXzr1-4" value="Blog" style="rounded=1;whiteSpace=wrap;html=1;" vertex="1" parent="1">
          <mxGeometry x="230" y="560" width="120" height="60" as="geometry" />
        </mxCell>
        <mxCell id="KGGcfLkiDgx1GtvcXzr1-6" value="Đăng tin" style="rounded=1;whiteSpace=wrap;html=1;" vertex="1" parent="1">
          <mxGeometry x="670" y="560" width="120" height="60" as="geometry" />
        </mxCell>
        <mxCell id="KGGcfLkiDgx1GtvcXzr1-7" value="" style="endArrow=classic;html=1;rounded=0;entryX=0.5;entryY=1;entryDx=0;entryDy=0;exitX=1;exitY=0.5;exitDx=0;exitDy=0;" edge="1" parent="1" source="KGGcfLkiDgx1GtvcXzr1-1" target="KGGcfLkiDgx1GtvcXzr1-3">
          <mxGeometry width="50" height="50" relative="1" as="geometry">
            <mxPoint x="450" y="520" as="sourcePoint" />
            <mxPoint x="500" y="470" as="targetPoint" />
            <Array as="points">
              <mxPoint x="750" y="420" />
            </Array>
          </mxGeometry>
        </mxCell>
        <mxCell id="KGGcfLkiDgx1GtvcXzr1-8" value="Username+ pasword + email" style="text;html=1;strokeColor=none;fillColor=none;align=center;verticalAlign=middle;whiteSpace=wrap;rounded=0;" vertex="1" parent="1">
          <mxGeometry x="720" y="140" width="60" height="30" as="geometry" />
        </mxCell>
        <mxCell id="KGGcfLkiDgx1GtvcXzr1-9" value="Thành công" style="rhombus;whiteSpace=wrap;html=1;" vertex="1" parent="1">
          <mxGeometry x="930" y="170" width="80" height="80" as="geometry" />
        </mxCell>
        <mxCell id="KGGcfLkiDgx1GtvcXzr1-10" value="" style="endArrow=classic;html=1;rounded=0;entryX=0;entryY=0.5;entryDx=0;entryDy=0;exitX=1;exitY=0.5;exitDx=0;exitDy=0;" edge="1" parent="1" source="KGGcfLkiDgx1GtvcXzr1-3" target="KGGcfLkiDgx1GtvcXzr1-9">
          <mxGeometry width="50" height="50" relative="1" as="geometry">
            <mxPoint x="780" y="240" as="sourcePoint" />
            <mxPoint x="830" y="190" as="targetPoint" />
          </mxGeometry>
        </mxCell>
        <mxCell id="KGGcfLkiDgx1GtvcXzr1-11" value="" style="endArrow=classic;html=1;rounded=0;entryX=0.579;entryY=0.013;entryDx=0;entryDy=0;entryPerimeter=0;exitX=0.5;exitY=0;exitDx=0;exitDy=0;" edge="1" parent="1" source="KGGcfLkiDgx1GtvcXzr1-9" target="KGGcfLkiDgx1GtvcXzr1-3">
          <mxGeometry width="50" height="50" relative="1" as="geometry">
            <mxPoint x="780" y="240" as="sourcePoint" />
            <mxPoint x="830" y="190" as="targetPoint" />
            <Array as="points">
              <mxPoint x="970" y="120" />
              <mxPoint x="760" y="120" />
            </Array>
          </mxGeometry>
        </mxCell>
        <mxCell id="KGGcfLkiDgx1GtvcXzr1-12" value="không" style="text;html=1;strokeColor=none;fillColor=none;align=center;verticalAlign=middle;whiteSpace=wrap;rounded=0;" vertex="1" parent="1">
          <mxGeometry x="960" y="130" width="60" height="30" as="geometry" />
        </mxCell>
        <mxCell id="KGGcfLkiDgx1GtvcXzr1-14" value="Có" style="text;html=1;strokeColor=none;fillColor=none;align=center;verticalAlign=middle;whiteSpace=wrap;rounded=0;" vertex="1" parent="1">
          <mxGeometry x="990" y="260" width="60" height="30" as="geometry" />
        </mxCell>
        <mxCell id="KGGcfLkiDgx1GtvcXzr1-15" value="" style="endArrow=classic;html=1;rounded=0;exitX=0.5;exitY=1;exitDx=0;exitDy=0;" edge="1" parent="1" source="KGGcfLkiDgx1GtvcXzr1-9">
          <mxGeometry width="50" height="50" relative="1" as="geometry">
            <mxPoint x="830" y="420" as="sourcePoint" />
            <mxPoint x="970" y="320" as="targetPoint" />
          </mxGeometry>
        </mxCell>
        <mxCell id="KGGcfLkiDgx1GtvcXzr1-16" value="My account" style="swimlane;" vertex="1" parent="1">
          <mxGeometry x="870" y="325" width="200" height="200" as="geometry" />
        </mxCell>
        <mxCell id="KGGcfLkiDgx1GtvcXzr1-17" value="Dashboard" style="text;html=1;align=center;verticalAlign=middle;resizable=0;points=[];autosize=1;strokeColor=none;fillColor=none;" vertex="1" parent="KGGcfLkiDgx1GtvcXzr1-16">
          <mxGeometry y="25" width="80" height="30" as="geometry" />
        </mxCell>
        <mxCell id="KGGcfLkiDgx1GtvcXzr1-18" value="Mylisting" style="text;html=1;align=center;verticalAlign=middle;resizable=0;points=[];autosize=1;strokeColor=none;fillColor=none;" vertex="1" parent="KGGcfLkiDgx1GtvcXzr1-16">
          <mxGeometry y="65" width="70" height="30" as="geometry" />
        </mxCell>
        <mxCell id="KGGcfLkiDgx1GtvcXzr1-19" value="Promotion&lt;br&gt;" style="text;html=1;align=center;verticalAlign=middle;resizable=0;points=[];autosize=1;strokeColor=none;fillColor=none;" vertex="1" parent="KGGcfLkiDgx1GtvcXzr1-16">
          <mxGeometry y="105" width="80" height="30" as="geometry" />
        </mxCell>
        <mxCell id="KGGcfLkiDgx1GtvcXzr1-20" value="account detail" style="text;html=1;align=center;verticalAlign=middle;resizable=0;points=[];autosize=1;strokeColor=none;fillColor=none;" vertex="1" parent="KGGcfLkiDgx1GtvcXzr1-16">
          <mxGeometry x="-20" y="145" width="100" height="30" as="geometry" />
        </mxCell>
        <mxCell id="KGGcfLkiDgx1GtvcXzr1-21" value="Đăng nhập" style="rounded=0;whiteSpace=wrap;html=1;" vertex="1" parent="1">
          <mxGeometry x="570" y="180" width="120" height="60" as="geometry" />
        </mxCell>
        <mxCell id="KGGcfLkiDgx1GtvcXzr1-22" value="" style="endArrow=classic;html=1;rounded=0;entryX=1;entryY=0.5;entryDx=0;entryDy=0;exitX=0.5;exitY=0;exitDx=0;exitDy=0;" edge="1" parent="1" source="KGGcfLkiDgx1GtvcXzr1-1">
          <mxGeometry width="50" height="50" relative="1" as="geometry">
            <mxPoint x="540" y="370" as="sourcePoint" />
            <mxPoint x="370" y="230" as="targetPoint" />
            <Array as="points">
              <mxPoint x="520" y="230" />
            </Array>
          </mxGeometry>
        </mxCell>
        <mxCell id="KGGcfLkiDgx1GtvcXzr1-23" value="Tìm kiếm" style="swimlane;fontStyle=0;childLayout=stackLayout;horizontal=1;startSize=30;horizontalStack=0;resizeParent=1;resizeParentMax=0;resizeLast=0;collapsible=1;marginBottom=0;" vertex="1" parent="1">
          <mxGeometry x="230" y="140" width="140" height="90" as="geometry" />
        </mxCell>
        <mxCell id="KGGcfLkiDgx1GtvcXzr1-24" value="Reasearch" style="text;strokeColor=none;fillColor=none;align=left;verticalAlign=middle;spacingLeft=4;spacingRight=4;overflow=hidden;points=[[0,0.5],[1,0.5]];portConstraint=eastwest;rotatable=0;" vertex="1" parent="KGGcfLkiDgx1GtvcXzr1-23">
          <mxGeometry y="30" width="140" height="30" as="geometry" />
        </mxCell>
        <mxCell id="KGGcfLkiDgx1GtvcXzr1-25" value="Reset" style="text;strokeColor=none;fillColor=none;align=left;verticalAlign=middle;spacingLeft=4;spacingRight=4;overflow=hidden;points=[[0,0.5],[1,0.5]];portConstraint=eastwest;rotatable=0;" vertex="1" parent="KGGcfLkiDgx1GtvcXzr1-23">
          <mxGeometry y="60" width="140" height="30" as="geometry" />
        </mxCell>
        <mxCell id="KGGcfLkiDgx1GtvcXzr1-27" value="" style="endArrow=classic;html=1;rounded=0;exitX=0;exitY=0.5;exitDx=0;exitDy=0;" edge="1" parent="1" source="KGGcfLkiDgx1GtvcXzr1-1">
          <mxGeometry width="50" height="50" relative="1" as="geometry">
            <mxPoint x="250" y="610" as="sourcePoint" />
            <mxPoint x="300" y="560" as="targetPoint" />
            <Array as="points">
              <mxPoint x="300" y="420" />
            </Array>
          </mxGeometry>
        </mxCell>
        <mxCell id="KGGcfLkiDgx1GtvcXzr1-28" value="" style="endArrow=classic;html=1;rounded=0;entryX=0;entryY=0.5;entryDx=0;entryDy=0;exitX=0.5;exitY=1;exitDx=0;exitDy=0;" edge="1" parent="1" source="KGGcfLkiDgx1GtvcXzr1-1" target="KGGcfLkiDgx1GtvcXzr1-6">
          <mxGeometry width="50" height="50" relative="1" as="geometry">
            <mxPoint x="600" y="550" as="sourcePoint" />
            <mxPoint x="650" y="500" as="targetPoint" />
            <Array as="points">
              <mxPoint x="520" y="590" />
            </Array>
          </mxGeometry>
        </mxCell>
      </root>
    </mxGraphModel>
  </diagram>
</mxfile>
